Coordinates
version=1
nRows=37
nColumns=38
inDegrees=no

Units are S.I. units (second, meters, Newtons, ...)
If the header above contains a line with 'inDegrees', this indicates whether rotational values are in degrees (yes) or radians (no).

endheader
time	pelvis_tilt	pelvis_list	pelvis_rotation	pelvis_tx	pelvis_ty	pelvis_tz	hip_flexion_r	hip_adduction_r	hip_rotation_r	knee_angle_r	ankle_angle_r	subtalar_angle_r	mtp_angle_r	hip_flexion_l	hip_adduction_l	hip_rotation_l	knee_angle_l	ankle_angle_l	subtalar_angle_l	mtp_angle_l	lumbar_extension	lumbar_bending	lumbar_rotation	arm_flex_r	arm_add_r	arm_rot_r	elbow_flex_r	pro_sup_r	wrist_flex_r	wrist_dev_r	arm_flex_l	arm_add_l	arm_rot_l	elbow_flex_l	pro_sup_l	wrist_flex_l	wrist_dev_l
1.09	-0.178233	1.53363	-1.4822	0.82404	0.427908	1.06291	-0.102849	0.047095	-0.252381	0.127052	-0.0552419	0	0	0.284287	-0.106685	-0.318593	0.662579	-0.0635218	0	0	-0.380123	0.00360183	0.0963396	-0.141998	-0.387732	0.372132	0.676481	0.757489	0	0	0.00107823	-0.449768	0.236594	0.620637	1.17026	0	0
1.1	-0.159212	1.53244	-1.5072	0.822706	0.416537	1.06234	-0.120709	0.045995	-0.254934	0.119134	-0.0537574	0	0	0.283149	-0.101488	-0.332419	0.592281	-0.0796105	0	0	-0.383334	0.000702339	0.0997755	-0.14345	-0.391067	0.369013	0.682545	0.756264	0	0	-0.00152656	-0.444376	0.229729	0.620743	1.17361	0	0
1.11	-0.13632	1.53235	-1.53565	0.821423	0.405119	1.06137	-0.138178	0.0442298	-0.25847	0.111217	-0.0520986	0	0	0.281902	-0.0939417	-0.342573	0.519394	-0.0970277	0	0	-0.384995	-0.0025246	0.102507	-0.145227	-0.394283	0.365967	0.688702	0.755404	0	0	-0.00424873	-0.439541	0.223508	0.620982	1.17626	0	0
1.12	-0.150831	1.5321	-1.52579	0.820238	0.393708	1.06026	-0.154864	0.0440597	-0.257323	0.103029	-0.050281	0	0	0.279627	-0.0862783	-0.349523	0.444552	-0.115734	0	0	-0.387186	-0.00415245	0.104891	-0.146352	-0.397622	0.36342	0.694256	0.754727	0	0	-0.00613893	-0.435018	0.218814	0.62097	1.17919	0	0
1.13	-0.180843	1.53324	-1.49978	0.819209	0.382303	1.05882	-0.169226	0.0445307	-0.257593	0.0955659	-0.0481654	0	0	0.278095	-0.0774364	-0.35323	0.368306	-0.132901	0	0	-0.387851	-0.00499808	0.106872	-0.147346	-0.400988	0.361226	0.699234	0.75417	0	0	-0.00724999	-0.43078	0.216416	0.619857	1.18261	0	0
1.14	-0.221364	1.53495	-1.46268	0.818236	0.370808	1.05707	-0.183353	0.0451077	-0.257317	0.0881261	-0.0452334	0	0	0.276525	-0.0677855	-0.3535	0.292084	-0.153531	0	0	-0.387703	-0.00550682	0.108762	-0.148964	-0.404179	0.358269	0.704415	0.753803	0	0	-0.00781469	-0.426796	0.214758	0.618311	1.1872	0	0
1.15	-0.278722	1.53779	-1.40803	0.817285	0.359189	1.05499	-0.196152	0.0457333	-0.257488	0.0814871	-0.0422339	0	0	0.275501	-0.0575147	-0.348912	0.217109	-0.16855	0	0	-0.38564	-0.00583927	0.110013	-0.15023	-0.406534	0.355973	0.707763	0.753536	0	0	-0.0085803	-0.423899	0.214533	0.616967	1.18965	0	0
1.16	-0.394373	1.54112	-1.29441	0.816414	0.347366	1.05249	-0.207771	0.0473649	-0.258744	0.0757281	-0.0385144	0	0	0.277762	-0.0495717	-0.340793	0.153577	-0.179238	0	0	-0.381905	-0.00455647	0.111211	-0.152778	-0.409312	0.353736	0.711792	0.753789	0	0	-0.00991708	-0.421256	0.214828	0.616046	1.19122	0	0
1.17	-0.563523	1.54423	-1.12635	0.815622	0.335414	1.04977	-0.218778	0.049679	-0.260423	0.0706022	-0.0344619	0	0	0.280633	-0.0419709	-0.328601	0.0950448	-0.185734	0	0	-0.377399	-0.0025632	0.111676	-0.155118	-0.411575	0.351817	0.714768	0.754362	0	0	-0.0114913	-0.419126	0.215272	0.615389	1.19227	0	0
1.18	-0.766766	1.54651	-0.92378	0.814868	0.323259	1.04688	-0.229877	0.0518108	-0.262192	0.0659702	-0.0301515	0	0	0.283821	-0.0348693	-0.317713	0.0423173	-0.189759	0	0	-0.372349	-0.00064029	0.11126	-0.157314	-0.413375	0.350072	0.71728	0.755255	0	0	-0.0138999	-0.417849	0.215905	0.615399	1.19383	0	0
1.19	-0.957202	1.54754	-0.734798	0.814054	0.31096	1.04393	-0.241284	0.0528664	-0.264009	0.063101	-0.026059	0	0	0.287014	-0.028476	-0.312396	0	-0.192757	0	0	-0.368067	0.000230394	0.110843	-0.159187	-0.414949	0.348447	0.719963	0.756043	0	0	-0.0169	-0.417306	0.215984	0.616426	1.1955	0	0
1.2	-1.11427	1.54757	-0.578586	0.813175	0.298586	1.04109	-0.251754	0.0537767	-0.266643	0.0627789	-0.0206102	0	0	0.29416	-0.0235825	-0.31798	0	-0.1903	0	0	-0.36512	0.000211461	0.109388	-0.160044	-0.4154	0.346839	0.72181	0.756881	0	0	-0.0198502	-0.41759	0.215051	0.618	1.19746	0	0
1.21	-1.27371	1.54709	-0.419326	0.81242	0.28612	1.03818	-0.25901	0.0543176	-0.272538	0.0690658	-0.0121434	0	0	0.301558	-0.0194678	-0.322775	0	-0.180409	0	0	-0.362103	0.000340816	0.107257	-0.161124	-0.415713	0.345127	0.723906	0.758195	0	0	-0.0227769	-0.417823	0.212846	0.619444	1.20082	0	0
1.22	-1.33927	1.54662	-0.35417	0.811563	0.273597	1.03567	-0.267885	0.0535143	-0.275634	0.075948	-0.00542006	0	0	0.307372	-0.0141199	-0.328168	0	-0.168594	0	0	-0.361593	-0.00139406	0.10492	-0.160584	-0.415011	0.344589	0.724475	0.759849	0	0	-0.0245046	-0.418583	0.209867	0.620365	1.20305	0	0
1.23	-1.30844	1.54627	-0.385785	0.810672	0.260975	1.03356	-0.27825	0.0513628	-0.277639	0.0845648	-0.00129571	0	0	0.311019	-0.00853291	-0.335122	0	-0.160107	0	0	-0.363899	-0.00448833	0.10301	-0.159085	-0.413815	0.344433	0.724362	0.760599	0	0	-0.0246408	-0.419875	0.207175	0.621344	1.20043	0	0
1.24	-1.17915	1.54541	-0.516158	0.809635	0.248214	1.03206	-0.291113	0.0484898	-0.277929	0.0932655	0.000764659	0	0	0.312059	-0.00342729	-0.342102	0	-0.155629	0	0	-0.369346	-0.00899165	0.101783	-0.155789	-0.411339	0.345229	0.721856	0.760575	0	0	-0.0229234	-0.421795	0.205309	0.621761	1.19495	0	0
1.25	-1.01651	1.54367	-0.679647	0.80866	0.235143	1.03069	-0.303525	0.0445478	-0.281255	0.106788	0.00223341	0	0	0.310939	0.000272794	-0.347913	0	-0.155321	0	0	-0.375642	-0.0140883	0.101216	-0.153261	-0.408708	0.346409	0.71902	0.759883	0	0	-0.0213204	-0.424233	0.207989	0.620764	1.19952	0	0
1.26	-0.814886	1.54111	-0.882749	0.80752	0.221781	1.0297	-0.316224	0.038167	-0.286226	0.124148	0.00254181	0	0	0.308919	0.00414814	-0.354353	0.0146946	-0.157659	0	0	-0.383254	-0.0212205	0.101766	-0.150919	-0.404527	0.347322	0.714292	0.757019	0	0	-0.018555	-0.426672	0.209238	0.619186	1.20501	0	0
1.27	-0.678943	1.53746	-1.02035	0.806395	0.20802	1.02871	-0.327269	0.0316481	-0.291486	0.145031	0.00153799	0	0	0.308177	0.00413192	-0.362002	0.0538202	-0.155627	0	0	-0.389181	-0.0273041	0.103223	-0.149993	-0.400423	0.348291	0.70937	0.753274	0	0	-0.0163905	-0.428298	0.208817	0.61765	1.20682	0	0
1.28	-0.564207	1.53313	-1.1373	0.805158	0.193834	1.02792	-0.337117	0.0239006	-0.29703	0.169754	-0.00156488	0	0	0.304934	0.0035695	-0.365807	0.0939942	-0.145835	0	0	-0.394169	-0.0339662	0.105131	-0.148619	-0.395612	0.351592	0.702084	0.749234	0	0	-0.0154194	-0.430471	0.208628	0.616668	1.2071	0	0
1.29	-0.481089	1.52866	-1.22318	0.803875	0.179156	1.02721	-0.345658	0.0155207	-0.300432	0.196997	-0.00718218	0	0	0.299169	0.00282582	-0.364315	0.129843	-0.133891	0	0	-0.397062	-0.0404354	0.107151	-0.14757	-0.390252	0.356181	0.693074	0.746672	0	0	-0.0158309	-0.432618	0.209172	0.614856	1.20693	0	0
1.3	-0.409553	1.52484	-1.29792	0.802579	0.164052	1.02655	-0.351611	0.00544474	-0.302879	0.22874	-0.015515	0	0	0.291606	0.00390343	-0.357852	0.156408	-0.127866	0	0	-0.397511	-0.0474635	0.108615	-0.146532	-0.384101	0.362185	0.681997	0.744595	0	0	-0.0184091	-0.434836	0.208988	0.613213	1.20563	0	0
1.31	-0.348076	1.52311	-1.36253	0.801435	0.148684	1.02579	-0.352888	-0.00653665	-0.301988	0.265136	-0.0264681	0	0	0.286136	0.00633836	-0.34958	0.17482	-0.138223	0	0	-0.394215	-0.0548713	0.1088	-0.145757	-0.377371	0.369077	0.669503	0.742232	0	0	-0.0230317	-0.436882	0.20764	0.611387	1.20324	0	0
1.32	-0.282665	1.52373	-1.4298	0.800492	0.133294	1.02516	-0.3487	-0.0196293	-0.295981	0.306113	-0.0428221	0	0	0.283154	0.0103886	-0.337946	0.18499	-0.164396	0	0	-0.387731	-0.0630396	0.106201	-0.14291	-0.369426	0.379483	0.653859	0.738236	0	0	-0.0288128	-0.439095	0.204942	0.608764	1.19974	0	0
1.33	-0.218436	1.52663	-1.49376	0.799787	0.118018	1.02468	-0.338962	-0.0320611	-0.2831	0.350848	-0.0630938	0	0	0.283383	0.0136764	-0.32299	0.195582	-0.184114	0	0	-0.37889	-0.0707323	0.1014	-0.139245	-0.360898	0.391461	0.637245	0.732967	0	0	-0.0343087	-0.441014	0.201475	0.60488	1.19522	0	0
1.34	-0.137718	1.53228	-1.57195	0.799423	0.102888	1.02417	-0.322792	-0.0450568	-0.265725	0.401214	-0.0876711	0	0	0.286725	0.0164774	-0.305368	0.211201	-0.188198	0	0	-0.367009	-0.0774912	0.094606	-0.136296	-0.35272	0.403766	0.621431	0.726729	0	0	-0.0393787	-0.44236	0.198341	0.599598	1.1895	0	0
1.35	0.0826652	1.55306	-1.79674	0.79909	0.089144	1.02286	-0.306951	-0.0658659	-0.0827186	0.406768	-0.121275	0	0	0.309676	0.0193739	-0.282393	0.236565	-0.18104	0	0	-0.338968	-0.0858113	0.0949393	-0.129594	-0.344118	0.421304	0.597389	0.718735	0	0	-0.0393844	-0.439402	0.19735	0.584877	1.18275	0	0
1.36	0.48581	1.5561	-2.19446	0.799065	0.074497	1.02291	-0.284606	-0.076877	-0.0640948	0.458868	-0.160875	0	0	0.315357	0.0250494	-0.263216	0.268649	-0.169134	0	0	-0.3289	-0.0916314	0.0869441	-0.127096	-0.33733	0.433851	0.583677	0.710997	0	0	-0.0406577	-0.439792	0.195848	0.578466	1.17359	0	0
1.37	0.824527	1.55432	-2.52796	0.799035	0.0602171	1.02353	-0.262741	-0.0871342	-0.0439387	0.510638	-0.215041	0	0	0.317135	0.0320996	-0.24844	0.299621	-0.155409	0	0	-0.323503	-0.0972375	0.080267	-0.124096	-0.331678	0.446025	0.57155	0.702782	0	0	-0.0391323	-0.440971	0.198496	0.573038	1.16025	0	0
1.38	0.898589	1.55048	-2.59842	0.798866	0.0464166	1.02471	-0.241255	-0.0954025	-0.0201024	0.563563	-0.272606	0	0	0.313181	0.0384304	-0.240754	0.32481	-0.144	0	0	-0.324235	-0.101636	0.0773859	-0.121975	-0.32796	0.454167	0.563671	0.696186	0	0	-0.033498	-0.442519	0.205634	0.568827	1.14503	0	0
1.39	0.786299	1.54658	-2.48392	0.798688	0.0330075	1.02641	-0.216882	-0.10141	0.00417516	0.626569	-0.332338	0	0	0.303009	0.0423869	-0.239084	0.34291	-0.133961	0	0	-0.330495	-0.103259	0.0777611	-0.120872	-0.326998	0.458504	0.560434	0.691935	0	0	-0.0244119	-0.443617	0.216353	0.565533	1.12916	0	0
1.4	0.919518	1.54254	-2.61788	0.798081	0.0198602	1.02709	-0.189095	-0.109094	0.0288943	0.679538	-0.39077	0	0	0.296088	0.0493011	-0.242168	0.356786	-0.122431	0	0	-0.330401	-0.109362	0.0803236	-0.123977	-0.326556	0.457234	0.562518	0.691071	0	0	-0.0180802	-0.447511	0.228083	0.567705	1.11223	0	0
1.41	1.53832	1.5286	3.0405	0.796517	0.00690618	1.02451	-0.153693	-0.153979	0.0691712	0.672354	-0.48726	0	0	0.307753	0.0681733	-0.248697	0.370999	-0.10479	0	0	-0.305979	-0.131018	0.0837688	-0.135699	-0.322612	0.447716	0.570158	0.697329	0	0	-0.0234171	-0.461366	0.244114	0.582462	1.08749	0	0
1.42	1.01855	1.53367	-2.72391	0.795961	-0.00560545	1.02886	-0.132941	-0.119693	0.0760424	0.768368	-0.529614	0	0	0.271667	0.06074	-0.257802	0.370277	-0.0985378	0	0	-0.334283	-0.122663	0.0880072	-0.130443	-0.327444	0.445677	0.574375	0.699869	0	0	-0.00782006	-0.460964	0.25554	0.582239	1.07432	0	0
1.43	1.44326	1.51871	3.12617	0.794006	-0.0183759	1.02639	-0.102366	-0.167218	0.110644	0.741401	-0.61936	0	0	0.275931	0.0800862	-0.272218	0.376599	-0.0830521	0	0	-0.313043	-0.145821	0.0911413	-0.144927	-0.32562	0.428775	0.591394	0.711192	0	0	-0.0169779	-0.476368	0.263542	0.6039	1.05794	0	0
1.44	1.01973	1.52783	-2.73693	0.793233	-0.0304219	1.03099	-0.0716134	-0.123254	0.11431	0.858656	-0.601464	0	0	0.238312	0.0671319	-0.284586	0.368784	-0.0793137	0	0	-0.338972	-0.133434	0.0956351	-0.137244	-0.331993	0.428294	0.594796	0.716009	0	0	-0.003617	-0.473714	0.267657	0.602981	1.05385	0	0
1.45	1.03662	1.52727	-2.75719	0.792066	-0.042774	1.03185	-0.0375037	-0.124717	0.123361	0.910329	-0.573878	0	0	0.222164	0.0681233	-0.295855	0.364378	-0.0718316	0	0	-0.338415	-0.135909	0.0960866	-0.141001	-0.335684	0.421305	0.606293	0.722283	0	0	-0.00412465	-0.478467	0.265799	0.613078	1.05402	0	0
